<?xml version="1.0" encoding="iso-8859-1"?>

<!DOCTYPE svg PUBLIC "-//W3C//DTD SVG 1.1//EN" "http://www.w3.org/Graphics/SVG/1.1/DTD/svg11.dtd">
<!-- Uploaded to: SVG Repo, www.svgrepo.com, Generator: SVG Repo Mixer Tools -->
<svg fill="#000000" version="1.1" id="Layer_1" xmlns="http://www.w3.org/2000/svg" xmlns:xlink="http://www.w3.org/1999/xlink" 
	 width="800px" height="800px" viewBox="0 0 36.234 57.457"
	 xml:space="preserve">
<g>
	<path d="M35.304,16.168H0.929c-0.514,0-0.93,0.418-0.93,0.933c0,0.517,0.416,0.935,0.93,0.935h0.026
		C1.33,25.105,5.923,31.047,12.25,33.357l-9.675,22.22c-0.295,0.678,0.012,1.471,0.688,1.768c0.174,0.075,0.354,0.112,0.532,0.112
		c0.513,0,1.002-0.299,1.224-0.805l9.829-22.577c0.634,0.124,1.279,0.208,1.937,0.26v16.03c0,0.74,0.596,1.342,1.333,1.342
		c0.735,0,1.333-0.602,1.333-1.342v-16.03c0.655-0.052,1.303-0.136,1.938-0.26l9.828,22.577c0.221,0.505,0.709,0.805,1.224,0.805
		c0.178,0,0.358-0.038,0.533-0.112c0.674-0.297,0.981-1.09,0.686-1.768l-9.673-22.22c6.326-2.312,10.92-8.252,11.296-15.321h0.024
		c0.515,0,0.93-0.418,0.93-0.935C36.234,16.586,35.819,16.168,35.304,16.168z"/>
	<path d="M8.368,6.999c1.182,0,2.146,0.968,2.146,2.158c0,1.188-0.964,2.158-2.146,2.158c-0.369,0-0.667,0.3-0.667,0.669
		c0,0.372,0.299,0.671,0.667,0.671c1.918,0,3.479-1.569,3.479-3.499c0-1.932-1.561-3.5-3.479-3.5c-1.185,0-2.146-0.968-2.146-2.158
		s0.962-2.159,2.146-2.159c0.367,0,0.667-0.299,0.667-0.671C9.035,0.3,8.735,0,8.368,0C6.448,0,4.89,1.569,4.89,3.499
		S6.448,6.999,8.368,6.999z"/>
	<path d="M15.707,6.999c0.741,0,1.342,0.605,1.342,1.352c0,0.744-0.602,1.352-1.342,1.352c-0.369,0-0.666,0.299-0.666,0.669
		c0,0.372,0.297,0.671,0.666,0.671c1.476,0,2.675-1.208,2.675-2.691c0-1.485-1.199-2.694-2.675-2.694
		c-0.742,0-1.345-0.605-1.345-1.351c0-0.747,0.603-1.35,1.345-1.35c0.368,0,0.666-0.302,0.666-0.671
		c0-0.372-0.298-0.671-0.666-0.671c-1.476,0-2.678,1.207-2.678,2.692C13.029,5.79,14.23,6.999,15.707,6.999z"/>
</g>
</svg>