<?xml version="1.0" encoding="UTF-8"?>
<svg xmlns="http://www.w3.org/2000/svg" version="1.1" xmlns:cc="http://creativecommons.org/ns#" xmlns:dc="http://purl.org/dc/elements/1.1/" xmlns:inkscape="http://www.inkscape.org/namespaces/inkscape" xmlns:rdf="http://www.w3.org/1999/02/22-rdf-syntax-ns#" xmlns:sodipodi="http://sodipodi.sourceforge.net/DTD/sodipodi-0.dtd" xmlns:svg="http://www.w3.org/2000/svg" viewBox="0 0 800 800">
  <defs>
    <style>
      .cls-1 {
        fill-rule: evenodd;
      }
    </style>
  </defs>
  <!-- Generator: Adobe Illustrator 28.7.1, SVG Export Plug-In . SVG Version: 1.2.0 Build 142)  -->
  <g>
    <g id="svg8">
      <g id="layer1">
        <path id="rect823" d="M334.4,27.8c-4.8,0-9.2,2.7-11.3,7l-15.5,31h205.5l-15.5-31c-2.1-4.3-6.5-7-11.3-7h-151.9Z"/>
        <path id="rect827" d="M233.1,78.4c-7,0-12.7,5.7-12.7,12.7v227.9c0,7,5.7,12.7,12.7,12.7h354.4c7,0,12.7-5.7,12.7-12.7V91c0-7-5.7-12.7-12.7-12.7H233.1ZM283.8,129c7,0,12.7,5.7,12.7,12.7h0c0,7-5.7,12.7-12.7,12.7h0c-7,0-12.7-5.7-12.7-12.7h0c0-7,5.7-12.7,12.7-12.7h0ZM410.3,129c41.8,0,76,34.1,76,75.9s-34.2,76-76,76-75.9-34.2-75.9-76,34.1-75.9,75.9-75.9ZM410.3,154.4c-28.1,0-50.5,22.4-50.5,50.5s22.4,50.7,50.5,50.7,50.7-22.5,50.7-50.7-22.5-50.5-50.7-50.5Z"/>
      </g>
      <path class="cls-1" d="M606.7,688.4l-5.7,20.5-220.3-133.7-1.9-58.9s46.6,33,65.4,48c4.5,3.2,7.9,7.7,9.7,13,1.7,5.3,1.7,10.9,0,16.2l99.5,62.2,16.2-66.4,21.9,27.3,31.3,1,8,15.5h30.9c0,40-14.2,56.2-54.9,55.5ZM352.5,577.8l57.9,220.3s-32,14.3-41.6-12.6c-8.8-24.9-52.5-138.9-52.5-138.9l-17.5,7.9s-37,102.4-48.7,131.3c-12.1,29.7-42.6,11.2-42.6,11.2l56.3-211.8-2.4-56.6-22.3,5.6-13.4,75s-34,4.4-32-23.3c2.1-28.4,5.6-82.5,5.6-82.5l73.9-44.3c52.3-2.8,87.2,12.6,83.2,69.6-1.2,16.5-3.7,49.1-3.7,49.1ZM269.6,406.8c-5.9-47.3,70.7-56.8,70.7-3.6s-65,49.1-70.7,3.6ZM474.9,670.4l9.3,22.9,41-9.6,70.4,44.5-15.1,54.1c4.8,0,10,7.6,10,17.3h-44.4l-1.8-46.8-48.6-2.2-21.9,31.8c4,.6,7.5,2.8,9.9,6,2.4,3.2,3.5,7.2,3,11.2h-57.3l32.6-129,13-.3Z"/>
    </g>
  </g>
</svg>