<?xml version="1.0" encoding="UTF-8"?>
<svg xmlns="http://www.w3.org/2000/svg" version="1.1" xmlns:cc="http://creativecommons.org/ns#" xmlns:dc="http://purl.org/dc/elements/1.1/" xmlns:inkscape="http://www.inkscape.org/namespaces/inkscape" xmlns:rdf="http://www.w3.org/1999/02/22-rdf-syntax-ns#" xmlns:sodipodi="http://sodipodi.sourceforge.net/DTD/sodipodi-0.dtd" xmlns:svg="http://www.w3.org/2000/svg" viewBox="0 0 800 800">
  <defs>
    <style>
      .cls-1 {
        fill-rule: evenodd;
      }
    </style>
  </defs>
  <!-- Generator: Adobe Illustrator 28.7.1, SVG Export Plug-In . SVG Version: 1.2.0 Build 142)  -->
  <g>
    <g id="svg8">
      <g id="layer1">
        <path id="rect823" d="M334.4,27.8c-4.8,0-9.2,2.7-11.3,7l-15.5,31h205.5l-15.5-31c-2.1-4.3-6.5-7-11.3-7h-151.9Z"/>
        <path id="rect827" d="M233.1,78.4c-7,0-12.7,5.7-12.7,12.7v227.9c0,7,5.7,12.7,12.7,12.7h354.4c7,0,12.7-5.7,12.7-12.7V91c0-7-5.7-12.7-12.7-12.7H233.1ZM283.8,129c7,0,12.7,5.7,12.7,12.7h0c0,7-5.7,12.7-12.7,12.7h0c-7,0-12.7-5.7-12.7-12.7h0c0-7,5.7-12.7,12.7-12.7h0ZM410.3,129c41.8,0,76,34.1,76,75.9s-34.2,76-76,76-75.9-34.2-75.9-76,34.1-75.9,75.9-75.9ZM410.3,154.4c-28.1,0-50.5,22.4-50.5,50.5s22.4,50.7,50.5,50.7,50.7-22.5,50.7-50.7-22.5-50.5-50.7-50.5Z"/>
      </g>
      <path class="cls-1" d="M612.2,797c-137.2,0-159.2-156.6-79.4-218.1-4.7-9.6-9.6-19.7-14.7-30.1l-95.7,145.9-217.6-2.5-13.8-19.9,51.9-74.1c-9.4-3.1-19.2-4.7-29-4.6-108.4,0-113.6,163.8,1.8,163.8s54.4-15.4,66.9-36.4l43.2,1.7c-15.4,41.4-51.5,74.1-108.8,74.1-170.8,0-163.1-242.7-2.7-242.7,17.9-.3,35.6,3.2,52.1,10.2l39.7-56.7-16.7-31.3-48.4,6.8c-17.6-23.5,11.9-60,46.1-55.6,15.4,2,81.9,7.9,81.9,7.9l2.2,29.5-46.4,6.7,9.8,19,154-2.2c-12.8-26.4-24.5-50.3-32.1-66.1-16.6-34.1,32.2-41.3,51.7-21.6l-10.2,34s73.8,150.4,95.9,192.4c5.1,9.3,23,30.2,39.5,37.8l-13.2,24.3c-33.2-10-49.6-34.2-64.9-64.9-1.3-2.7-2.8-5.5-4.2-8.6-46.1,44.5-28.7,141.2,59.7,141.2s105.6-163.2-1.8-163.2h-2.9l-14.1-38.8c5.8-.7,11.7-1.1,17.5-1.1,160,.3,159,243,3,243ZM271,615.6l-37.7,49.7,60.8-.5c-2-18.5-10.1-35.9-23.1-49.2ZM325.3,544l-29.9,39.5c22.6,21.3,36.3,50.4,38.3,81.3l56.3-.4-64.6-120.4ZM352.9,526.3l62.3,121.5,81.9-125.2-144.2,3.7Z"/>
    </g>
  </g>
</svg>