<?xml version="1.0" encoding="UTF-8"?>
<svg xmlns="http://www.w3.org/2000/svg" version="1.1" xmlns:cc="http://creativecommons.org/ns#" xmlns:dc="http://purl.org/dc/elements/1.1/" xmlns:inkscape="http://www.inkscape.org/namespaces/inkscape" xmlns:rdf="http://www.w3.org/1999/02/22-rdf-syntax-ns#" xmlns:sodipodi="http://sodipodi.sourceforge.net/DTD/sodipodi-0.dtd" xmlns:svg="http://www.w3.org/2000/svg" viewBox="0 0 800 800">
  <!-- Generator: Adobe Illustrator 28.7.1, SVG Export Plug-In . SVG Version: 1.2.0 Build 142)  -->
  <g>
    <g id="svg8">
      <g id="layer1">
        <path id="rect823" d="M334.4,27.8c-4.8,0-9.2,2.7-11.3,7l-15.5,31h205.5l-15.5-31c-2.1-4.3-6.5-7-11.3-7h-151.9Z"/>
        <path id="rect827" d="M233.1,78.4c-7,0-12.7,5.7-12.7,12.7v227.9c0,7,5.7,12.7,12.7,12.7h354.4c7,0,12.7-5.7,12.7-12.7V91c0-7-5.7-12.7-12.7-12.7H233.1ZM283.8,129c7,0,12.7,5.7,12.7,12.7h0c0,7-5.7,12.7-12.7,12.7h0c-7,0-12.7-5.7-12.7-12.7h0c0-7,5.7-12.7,12.7-12.7h0ZM410.3,129c41.8,0,76,34.1,76,75.9s-34.2,76-76,76-75.9-34.2-75.9-76,34.1-75.9,75.9-75.9ZM410.3,154.4c-28.1,0-50.5,22.4-50.5,50.5s22.4,50.7,50.5,50.7,50.7-22.5,50.7-50.7-22.5-50.5-50.7-50.5Z"/>
      </g>
      <path d="M624.7,529h17.9c10.7,0,17.9-7.1,17.9-17.9s-7.1-17.9-17.9-17.9h-50l-21.4-53.6c-14.3-32.1-46.4-53.6-82.2-53.6h-155.4c-37.5,0-69.7,21.4-83.9,53.6l-23.2,53.6h-48.2c-10.7,0-17.9,7.1-17.9,17.9s7.1,17.9,17.9,17.9h17.9c-21.4,16.1-35.7,42.9-35.7,71.4v71.4c0,16.1,7.1,30.4,17.9,39.3v32.1c0,30.4,23.2,53.6,53.6,53.6h35.7c30.4,0,53.6-23.2,53.6-53.6v-17.9h178.6v17.9c0,30.4,23.2,53.6,53.6,53.6h35.7c30.4,0,53.6-23.2,53.6-53.6v-32.1c10.7-8.9,17.9-23.2,17.9-39.3v-71.4c0-28.6-14.3-55.4-35.7-71.4ZM606.8,618.3c0,10.7-7.1,17.9-17.9,17.9h-53.6c-10.7,0-17.9-7.1-17.9-17.9s7.1-17.9,17.9-17.9h53.6c10.7,0,17.9,7.1,17.9,17.9ZM231.8,600.4h53.6c10.7,0,17.9,7.1,17.9,17.9s-7.1,17.9-17.9,17.9h-53.6c-10.7,0-17.9-7.1-17.9-17.9s7.1-17.9,17.9-17.9ZM310.4,689.7l21.4-41.1c8.9-17.9,26.8-30.4,48.2-30.4h62.5c19.6,0,39.3,10.7,48.2,30.4l21.4,41.1h-201.8ZM283.6,454c8.9-19.6,26.8-32.1,48.2-32.1h155.4c21.4,0,41.1,12.5,50,32.1l25,57.1h-303.6l25-57.1Z"/>
    </g>
  </g>
</svg>