<?xml version="1.0" encoding="utf-8"?>

<!-- Uploaded to: SVG Repo, www.svgrepo.com, Generator: SVG Repo Mixer Tools -->
<svg fill="#000000" height="800px" width="800px" version="1.1" id="Icons" xmlns="http://www.w3.org/2000/svg" xmlns:xlink="http://www.w3.org/1999/xlink" 
	 viewBox="0 0 32 32" xml:space="preserve">
<g>
	<path d="M23,9c0-3.9-3.1-7-7-7S9,5.1,9,9s3.1,7,7,7S23,12.9,23,9z"/>
	<path d="M22,14c-0.6,0-1,0.4-1,1v3.4l-4.6-2.3c0,0,0,0,0,0C16.3,16,16.2,16,16,16s-0.3,0-0.4,0.1c0,0,0,0,0,0L11,18.4V15
		c0-0.6-0.4-1-1-1s-1,0.4-1,1v14c0,0.6,0.4,1,1,1s1-0.4,1-1v-1.4l4.6,2.3c0,0,0,0,0,0C15.7,30,15.8,30,16,30s0.3,0,0.4-0.1
		c0,0,0,0,0,0l4.6-2.3V29c0,0.6,0.4,1,1,1s1-0.4,1-1V15C23,14.4,22.6,14,22,14z M17,18.6l2.8,1.4L17,21.4V18.6z M15,18.6v2.8
		L12.2,20L15,18.6z M11,21.6l2.8,1.4L11,24.4V21.6z M15,24.6v2.8L12.2,26L15,24.6z M17,27.4v-2.8l2.8,1.4L17,27.4z M18.2,23l2.8-1.4
		v2.8L18.2,23z"/>
</g>
</svg>