<?xml version="1.0" encoding="utf-8"?>

<!-- Uploaded to: SVG Repo, www.svgrepo.com, Generator: SVG Repo Mixer Tools -->
<svg version="1.1" id="Icons" xmlns="http://www.w3.org/2000/svg" xmlns:xlink="http://www.w3.org/1999/xlink" 
	 viewBox="0 0 32 32" xml:space="preserve">
<style type="text/css">
	.st0{fill:none;stroke:#000000;stroke-width:2;stroke-linecap:round;stroke-linejoin:round;stroke-miterlimit:10;}
</style>
<path d="M27,20H8V10c0-0.6-0.4-1-1-1s-1,0.4-1,1v10H5c-1.7,0-3,1.3-3,3v6c0,0.6,0.4,1,1,1h26c0.6,0,1-0.4,1-1v-6
	C30,21.3,28.7,20,27,20z M18,26h-1c-0.6,0-1-0.4-1-1s0.4-1,1-1h1c0.6,0,1,0.4,1,1S18.6,26,18,26z M25,26h-4c-0.6,0-1-0.4-1-1
	s0.4-1,1-1h4c0.6,0,1,0.4,1,1S25.6,26,25,26z"/>
<path d="M18,10c0,2.7-1.1,5.2-3,7.1c-0.4,0.4-0.4,1,0,1.4c0.2,0.2,0.5,0.3,0.7,0.3c0.3,0,0.5-0.1,0.7-0.3c2.3-2.3,3.6-5.3,3.6-8.6
	s-1.3-6.3-3.6-8.6c-0.4-0.4-1-0.4-1.4,0c-0.4,0.4-0.4,1,0,1.4C16.9,4.8,18,7.3,18,10z"/>
<path d="M14,10c0,1.6-0.6,3.2-1.8,4.3c-0.4,0.4-0.4,1,0,1.4c0.2,0.2,0.5,0.3,0.7,0.3c0.3,0,0.5-0.1,0.7-0.3c1.6-1.5,2.4-3.6,2.4-5.7
	s-0.9-4.2-2.4-5.7c-0.4-0.4-1-0.4-1.4,0c-0.4,0.4-0.4,1,0,1.4C13.4,6.8,14,8.4,14,10z"/>
<path d="M9.3,12.9c0.2,0.2,0.5,0.3,0.7,0.3c0.2,0,0.5-0.1,0.7-0.3c0.8-0.8,1.3-1.8,1.3-2.9s-0.5-2.1-1.3-2.9c-0.4-0.4-1-0.4-1.4,0
	c-0.4,0.4-0.4,1,0,1.4C9.8,8.9,10,9.4,10,10s-0.2,1.1-0.6,1.5C9,11.8,8.9,12.5,9.3,12.9z"/>
</svg>